
xxxxxxxxxxxxxxxxxxxxxxxxxxxxxxxxxxxxxxxxxxxxxxxxxxxxxxxxxxxxxxxxxxxxxxxxxxxxxxxx

Blade Runner
2007 The Final Cut

Director: Ridley Scott

xxxxxxxxxxxxxxxxxxxxxxxxxxxxxxxxxxxxxxxxxxxxxxxxxxxxxxxxxxxxxxxxxxxxxxxxxxxxxxxx
 
http://www.imdb.com/title/tt0083658/
 
http://www.imdb.com/title/tt0083658/alternateversions
 
http://en.wikipedia.org/wiki/Blade_Runner
 
http://en.wikipedia.org/wiki/Versions_of_Blade_Runner

xxxxxxxxxxxxxxxxxxxxxxxxxxxxxxxxxxxxxxxxxxxxxxxxxxxxxxxxxxxxxxxxxxxxxxxxxxxxxxxx

MAN HAS MADE HIS MATCH ...NOW IT'S HIS PROBLEM.

xxxxxxxxxxxxxxxxxxxxxxxxxxxxxxxxxxxxxxxxxxxxxxxxxxxxxxxxxxxxxxxxxxxxxxxxxxxxxxxx

Harrison Ford	 ...	Rick Deckard
Rutger Hauer	 ...	Roy Batty
Sean Young	 ...	Rachael
Edward James Olmos	 ...	Gaff
M. Emmet Walsh	 ...	Bryant
Daryl Hannah	 ...	Pris
William Sanderson	 ...	J.F. Sebastian
Brion James	 ...	Leon Kowalski
Joe Turkel	 ...	Dr. Eldon Tyrell
Joanna Cassidy	 ...	Zhora
James Hong	 ...	Hannibal Chew
Morgan Paull	 ...	Holden

xxxxxxxxxxxxxxxxxxxxxxxxxxxxxxxxxxxxxxxxxxxxxxxxxxxxxxxxxxxxxxxxxxxxxxxxxxxxxxxx

Other 272p movies: 
http://thepiratebay.com/tag/FaCTFiCTioN

Other versions of Blade Runner in 272p: 
http://thepiratebay.com/tag/Blade+Runner+272p

xxxxxxxxxxxxxxxxxxxxxxxxxxxxxxxxxxxxxxxxxxxxxxxxxxxxxxxxxxxxxxxxxxxxxxxxxxxxxxxx

General
Format                           : MPEG-4
Format profile                   : Base Media / Version 2
Codec ID                         : mp42
File size                        : 326 MiB
Duration                         : 1h 57mn
Overall bit rate                 : 388 Kbps

Video
ID                               : 1
Format                           : AVC
Format/Info                      : Advanced Video Codec
Format profile                   : Baseline@L1.3
Format settings, CABAC           : No
Format settings, ReFrames        : 2 frames
Codec ID                         : avc1
Codec ID/Info                    : Advanced Video Coding
Duration                         : 1h 57mn
Bit rate mode                    : Variable
Bit rate                         : 320 Kbps
Width                            : 480 pixels
Height                           : 208 pixels
Display aspect ratio             : 2.35:1
Frame rate mode                  : Variable
Frame rate                       : 23.976 fps
Minimum frame rate               : 11.989 fps
Maximum frame rate               : 29.970 fps
Color space                      : YUV
Chroma subsampling               : 4:2:0
Bit depth                        : 8 bits
Scan type                        : Progressive
Bits/(Pixel*Frame)               : 0.134
Stream size                      : 269 MiB (82%)
Writing library                  : x264 core 79

Audio
ID                               : 2
Format                           : AAC
Format/Info                      : Advanced Audio Codec
Format profile                   : LC
Codec ID                         : 40
Duration                         : 1h 57mn
Bit rate mode                    : Variable
Bit rate                         : 63.9 Kbps
Maximum bit rate                 : 93.3 Kbps
Channel(s)                       : 2 channels
Channel positions                : Front: L R
Sampling rate                    : 44.1 KHz
Compression mode                 : Lossy
Stream size                      : 53.7 MiB (16%)
Language                         : English

xxxxxxxxxxxxxxxxxxxxxxxxxxxxxxxxxxxxxxxxxxxxxxxxxxxxxxxxxxxxxxxxxxxxxxxxxxxxxxxx

FaCTFiCTioN ... 1. A work of fiction based in fact.
                2. A work of fiction which later becomes fact.

xxxxxxxxxxxxxxxxxxxxxxxxxxxxxxxxxxxxxxxxxxxxxxxxxxxxxxxxxxxxxxxxxxxxxxxxxxxxxxxx

272p = 272 lines of pixels in a 16:9 aspect ratio video with a 480 pixel width.

A 480x208 pixel video with an aspect ratio of 2.35:1 or a 480x352 pixel video
with an aspect ratio of 4:3 are also considered 272p.

272p m4v/mp4 format videos are easily played on PCs, Macs, smartphones, tablets,
game consoles, and portable multimedia players such as iPods, Zunes, PSPs, etc.
